<svg width="1440" height="760" viewBox="0 0 1440 760" fill="none" xmlns="http://www.w3.org/2000/svg">
  <rect width="1440" height="760" fill="#F7FAFC"/>
  <rect x="56" y="48" width="1328" height="664" rx="28" fill="#FFFFFF" stroke="#D7DEE8" stroke-width="2"/>
  <text x="96" y="108" fill="#111827" font-family="Arial, sans-serif" font-size="42" font-weight="700">QA Wolf 服务能力版图</text>
  <text x="96" y="154" fill="#4B5563" font-family="Arial, sans-serif" font-size="28">从发现覆盖缺口，到生成测试代码，再到并行运行和持续维护</text>

  <rect x="96" y="220" width="240" height="144" rx="18" fill="#E8F2FF" stroke="#8AB4F8" stroke-width="2"/>
  <text x="132" y="272" fill="#0F172A" font-family="Arial, sans-serif" font-size="32" font-weight="700">Mapping AI</text>
  <text x="132" y="310" fill="#334155" font-family="Arial, sans-serif" font-size="26">探索应用</text>
  <text x="132" y="350" fill="#334155" font-family="Arial, sans-serif" font-size="26">生成覆盖地图</text>

  <rect x="420" y="220" width="240" height="144" rx="18" fill="#F0FDF4" stroke="#74C69D" stroke-width="2"/>
  <text x="456" y="272" fill="#0F172A" font-family="Arial, sans-serif" font-size="32" font-weight="700">Automation AI</text>
  <text x="456" y="310" fill="#334155" font-family="Arial, sans-serif" font-size="26">自然语言生成</text>
  <text x="456" y="350" fill="#334155" font-family="Arial, sans-serif" font-size="26">Playwright/Appium</text>

  <rect x="744" y="220" width="240" height="144" rx="18" fill="#FFF7ED" stroke="#FDBA74" stroke-width="2"/>
  <text x="780" y="272" fill="#0F172A" font-family="Arial, sans-serif" font-size="32" font-weight="700">Run Infra</text>
  <text x="780" y="310" fill="#334155" font-family="Arial, sans-serif" font-size="26">隔离环境</text>
  <text x="780" y="350" fill="#334155" font-family="Arial, sans-serif" font-size="26">全量并行执行</text>

  <rect x="1068" y="220" width="240" height="144" rx="18" fill="#FDF2F8" stroke="#F9A8D4" stroke-width="2"/>
  <text x="1104" y="272" fill="#0F172A" font-family="Arial, sans-serif" font-size="32" font-weight="700">Full Service</text>
  <text x="1104" y="310" fill="#334155" font-family="Arial, sans-serif" font-size="26">人工调查失败</text>
  <text x="1104" y="350" fill="#334155" font-family="Arial, sans-serif" font-size="26">维护测试套件</text>

  <path d="M348 292H400" stroke="#475569" stroke-width="4" stroke-linecap="round"/>
  <path d="M400 292L386 278M400 292L386 306" stroke="#475569" stroke-width="4" stroke-linecap="round" stroke-linejoin="round"/>
  <path d="M672 292H724" stroke="#475569" stroke-width="4" stroke-linecap="round"/>
  <path d="M724 292L710 278M724 292L710 306" stroke="#475569" stroke-width="4" stroke-linecap="round" stroke-linejoin="round"/>
  <path d="M996 292H1048" stroke="#475569" stroke-width="4" stroke-linecap="round"/>
  <path d="M1048 292L1034 278M1048 292L1034 306" stroke="#475569" stroke-width="4" stroke-linecap="round" stroke-linejoin="round"/>

  <rect x="118" y="458" width="308" height="120" rx="18" fill="#F8FAFC" stroke="#CBD5E1" stroke-width="2"/>
  <text x="154" y="508" fill="#111827" font-family="Arial, sans-serif" font-size="30" font-weight="700">覆盖管理</text>
  <text x="154" y="548" fill="#475569" font-family="Arial, sans-serif" font-size="25">用户旅程、角色、设备</text>

  <rect x="506" y="458" width="308" height="120" rx="18" fill="#F8FAFC" stroke="#CBD5E1" stroke-width="2"/>
  <text x="542" y="508" fill="#111827" font-family="Arial, sans-serif" font-size="30" font-weight="700">代码资产</text>
  <text x="542" y="548" fill="#475569" font-family="Arial, sans-serif" font-size="25">标准测试代码，团队可审查</text>

  <rect x="894" y="458" width="308" height="120" rx="18" fill="#F8FAFC" stroke="#CBD5E1" stroke-width="2"/>
  <text x="930" y="508" fill="#111827" font-family="Arial, sans-serif" font-size="30" font-weight="700">发布信号</text>
  <text x="930" y="548" fill="#475569" font-family="Arial, sans-serif" font-size="25">CI、定时、手动触发</text>

  <path d="M272 410V438" stroke="#64748B" stroke-width="4" stroke-linecap="round"/>
  <path d="M660 410V438" stroke="#64748B" stroke-width="4" stroke-linecap="round"/>
  <path d="M1048 410V438" stroke="#64748B" stroke-width="4" stroke-linecap="round"/>

  <path d="M1192 592C1192 652 236 652 236 592" stroke="#94A3B8" stroke-width="4" stroke-linecap="round" stroke-dasharray="12 12"/>
  <path d="M236 592L222 606M236 592L250 606" stroke="#94A3B8" stroke-width="4" stroke-linecap="round" stroke-linejoin="round"/>
  <text x="498" y="684" fill="#475569" font-family="Arial, sans-serif" font-size="26">产品变化会重新进入覆盖地图和测试维护循环</text>
</svg>
