<svg width="1600" height="1000" viewBox="0 0 1600 1000" fill="none" xmlns="http://www.w3.org/2000/svg">
  <rect width="1600" height="1000" fill="#F7FAFC"/>
  <rect x="56" y="48" width="1488" height="884" rx="28" fill="#FFFFFF" stroke="#D7DEE8" stroke-width="2"/>
  <text x="96" y="116" fill="#111827" font-family="Arial, sans-serif" font-size="56" font-weight="700">QA Wolf E2E 生命周期</text>
  <text x="96" y="170" fill="#4B5563" font-family="Arial, sans-serif" font-size="34">从准备环境到清理发布信号，每一步都有明确产出</text>

  <rect x="104" y="240" width="300" height="170" rx="18" fill="#EEF2FF" stroke="#A5B4FC" stroke-width="2"/>
  <text x="140" y="290" fill="#111827" font-family="Arial, sans-serif" font-size="40" font-weight="700">1 环境准备</text>
  <text x="140" y="344" fill="#475569" font-family="Arial, sans-serif" font-size="32">变量 / 并发 / VPN</text>
  <text x="140" y="394" fill="#475569" font-family="Arial, sans-serif" font-size="32">选择测试环境</text>

  <rect x="464" y="240" width="300" height="170" rx="18" fill="#E0F2FE" stroke="#7DD3FC" stroke-width="2"/>
  <text x="500" y="290" fill="#111827" font-family="Arial, sans-serif" font-size="40" font-weight="700">2 Mapping</text>
  <text x="500" y="344" fill="#475569" font-family="Arial, sans-serif" font-size="32">URL 或文件输入</text>
  <text x="500" y="394" fill="#475569" font-family="Arial, sans-serif" font-size="32">探索用户路径</text>

  <rect x="824" y="240" width="300" height="170" rx="18" fill="#ECFDF5" stroke="#86EFAC" stroke-width="2"/>
  <text x="860" y="290" fill="#111827" font-family="Arial, sans-serif" font-size="40" font-weight="700">3 发布 Stubs</text>
  <text x="860" y="344" fill="#475569" font-family="Arial, sans-serif" font-size="32">审核新 flows</text>
  <text x="860" y="394" fill="#475569" font-family="Arial, sans-serif" font-size="32">生成目录和空文件</text>

  <rect x="1184" y="240" width="300" height="170" rx="18" fill="#FFF7ED" stroke="#FDBA74" stroke-width="2"/>
  <text x="1220" y="290" fill="#111827" font-family="Arial, sans-serif" font-size="40" font-weight="700">4 自动化</text>
  <text x="1220" y="344" fill="#475569" font-family="Arial, sans-serif" font-size="32">提示词 / 语音</text>
  <text x="1220" y="394" fill="#475569" font-family="Arial, sans-serif" font-size="32">生成测试代码</text>

  <rect x="1184" y="540" width="300" height="170" rx="18" fill="#FEF3C7" stroke="#FBBF24" stroke-width="2"/>
  <text x="1220" y="590" fill="#111827" font-family="Arial, sans-serif" font-size="40" font-weight="700">5 调试发布</text>
  <text x="1220" y="644" fill="#475569" font-family="Arial, sans-serif" font-size="32">Live browser 运行</text>
  <text x="1220" y="694" fill="#475569" font-family="Arial, sans-serif" font-size="32">Fix with AI 或手改</text>

  <rect x="824" y="540" width="300" height="170" rx="18" fill="#FDF2F8" stroke="#F9A8D4" stroke-width="2"/>
  <text x="860" y="590" fill="#111827" font-family="Arial, sans-serif" font-size="40" font-weight="700">6 触发运行</text>
  <text x="860" y="644" fill="#475569" font-family="Arial, sans-serif" font-size="32">手动 / 定时 / CI</text>
  <text x="860" y="694" fill="#475569" font-family="Arial, sans-serif" font-size="32">按规则编排顺序</text>

  <rect x="464" y="540" width="300" height="170" rx="18" fill="#F0FDF4" stroke="#74C69D" stroke-width="2"/>
  <text x="500" y="590" fill="#111827" font-family="Arial, sans-serif" font-size="40" font-weight="700">7 调查失败</text>
  <text x="500" y="644" fill="#475569" font-family="Arial, sans-serif" font-size="32">代码行 / 视频 / trace</text>
  <text x="500" y="694" fill="#475569" font-family="Arial, sans-serif" font-size="32">归因三类失败</text>

  <rect x="104" y="540" width="300" height="170" rx="18" fill="#F8FAFC" stroke="#CBD5E1" stroke-width="2"/>
  <text x="140" y="590" fill="#111827" font-family="Arial, sans-serif" font-size="40" font-weight="700">8 清理发布</text>
  <text x="140" y="644" fill="#475569" font-family="Arial, sans-serif" font-size="32">Bug / Maintenance</text>
  <text x="140" y="694" fill="#475569" font-family="Arial, sans-serif" font-size="32">全部解决后 Completed</text>

  <path d="M416 325H444" stroke="#475569" stroke-width="5" stroke-linecap="round"/>
  <path d="M444 325L428 309M444 325L428 341" stroke="#475569" stroke-width="5" stroke-linecap="round" stroke-linejoin="round"/>
  <path d="M776 325H804" stroke="#475569" stroke-width="5" stroke-linecap="round"/>
  <path d="M804 325L788 309M804 325L788 341" stroke="#475569" stroke-width="5" stroke-linecap="round" stroke-linejoin="round"/>
  <path d="M1136 325H1164" stroke="#475569" stroke-width="5" stroke-linecap="round"/>
  <path d="M1164 325L1148 309M1164 325L1148 341" stroke="#475569" stroke-width="5" stroke-linecap="round" stroke-linejoin="round"/>
  <path d="M1334 428V520" stroke="#475569" stroke-width="5" stroke-linecap="round"/>
  <path d="M1334 520L1318 504M1334 520L1350 504" stroke="#475569" stroke-width="5" stroke-linecap="round" stroke-linejoin="round"/>
  <path d="M1172 625H1144" stroke="#475569" stroke-width="5" stroke-linecap="round"/>
  <path d="M1144 625L1160 609M1144 625L1160 641" stroke="#475569" stroke-width="5" stroke-linecap="round" stroke-linejoin="round"/>
  <path d="M812 625H784" stroke="#475569" stroke-width="5" stroke-linecap="round"/>
  <path d="M784 625L800 609M784 625L800 641" stroke="#475569" stroke-width="5" stroke-linecap="round" stroke-linejoin="round"/>
  <path d="M452 625H424" stroke="#475569" stroke-width="5" stroke-linecap="round"/>
  <path d="M424 625L440 609M424 625L440 641" stroke="#475569" stroke-width="5" stroke-linecap="round" stroke-linejoin="round"/>

  <path d="M254 730V792C254 824 280 850 312 850H1288C1320 850 1346 824 1346 792V732" stroke="#94A3B8" stroke-width="5" stroke-linecap="round" stroke-dasharray="14 14"/>
  <path d="M1346 732L1330 748M1346 732L1362 748" stroke="#94A3B8" stroke-width="5" stroke-linecap="round" stroke-linejoin="round"/>
  <text x="454" y="900" fill="#475569" font-family="Arial, sans-serif" font-size="32">产品变化、失败结论和新增需求会反哺覆盖地图与测试代码</text>
</svg>
